<svg width="228" height="45" viewBox="0 0 228 45" fill="none" xmlns="http://www.w3.org/2000/svg">
<path d="M54.5898 10.8C56.8458 10.8 58.7778 11.364 60.3858 12.492C62.0178 13.596 63.2538 15.108 64.0938 17.028C64.9578 18.924 65.3898 21.048 65.3898 23.4C65.3898 25.752 64.9578 27.888 64.0938 29.808C63.2538 31.704 62.0178 33.216 60.3858 34.344C58.7778 35.448 56.8458 36 54.5898 36H45.9858C45.3618 36 44.8338 35.796 44.4018 35.388C43.9938 34.956 43.7898 34.428 43.7898 33.804V12.996C43.7898 12.372 43.9938 11.856 44.4018 11.448C44.8338 11.016 45.3618 10.8 45.9858 10.8H54.5898ZM54.2298 31.86C56.3898 31.86 58.0098 31.068 59.0898 29.484C60.1698 27.876 60.7098 25.848 60.7098 23.4C60.7098 20.952 60.1578 18.936 59.0538 17.352C57.9738 15.744 56.3658 14.94 54.2298 14.94H48.2898V31.86H54.2298ZM77.6242 36.36C75.8962 36.36 74.3602 36.144 73.0162 35.712C71.6722 35.28 70.4122 34.548 69.2362 33.516C68.5882 32.94 68.2642 32.304 68.2642 31.608C68.2642 31.056 68.4682 30.576 68.8762 30.168C69.2842 29.736 69.7762 29.52 70.3522 29.52C70.8082 29.52 71.2162 29.664 71.5762 29.952C72.5362 30.744 73.4722 31.32 74.3842 31.68C75.2962 32.04 76.3762 32.22 77.6242 32.22C78.9682 32.22 80.1202 31.92 81.0802 31.32C82.0642 30.72 82.5562 29.976 82.5562 29.088C82.5562 28.008 82.0762 27.168 81.1162 26.568C80.1562 25.944 78.6322 25.476 76.5442 25.164C71.2882 24.396 68.6602 21.948 68.6602 17.82C68.6602 16.308 69.0562 15 69.8482 13.896C70.6402 12.768 71.7202 11.916 73.0882 11.34C74.4562 10.74 75.9802 10.44 77.6602 10.44C79.1722 10.44 80.5882 10.668 81.9082 11.124C83.2522 11.58 84.3682 12.18 85.2562 12.924C85.9522 13.476 86.3002 14.112 86.3002 14.832C86.3002 15.384 86.0962 15.876 85.6882 16.308C85.2802 16.716 84.8002 16.92 84.2482 16.92C83.8882 16.92 83.5642 16.812 83.2762 16.596C82.6522 16.092 81.7762 15.636 80.6482 15.228C79.5442 14.796 78.5482 14.58 77.6602 14.58C76.1482 14.58 74.9722 14.868 74.1322 15.444C73.3162 15.996 72.9082 16.728 72.9082 17.64C72.9082 18.672 73.3282 19.452 74.1682 19.98C75.0322 20.508 76.3762 20.94 78.2002 21.276C80.2642 21.636 81.9082 22.104 83.1322 22.68C84.3802 23.232 85.3162 24 85.9402 24.984C86.5642 25.944 86.8762 27.228 86.8762 28.836C86.8762 30.348 86.4442 31.68 85.5802 32.832C84.7402 33.96 83.6122 34.836 82.1962 35.46C80.7802 36.06 79.2562 36.36 77.6242 36.36ZM108.645 12.024C109.389 12.408 109.761 13.02 109.761 13.86C109.761 14.364 109.581 14.856 109.221 15.336C108.837 15.84 108.345 16.092 107.745 16.092C107.337 16.092 106.929 15.984 106.521 15.768C105.345 15.216 104.073 14.94 102.705 14.94C101.025 14.94 99.5607 15.3 98.3127 16.02C97.0647 16.716 96.1047 17.712 95.4327 19.008C94.7607 20.28 94.4247 21.744 94.4247 23.4C94.4247 26.232 95.1807 28.38 96.6927 29.844C98.2287 31.308 100.233 32.04 102.705 32.04C104.169 32.04 105.441 31.764 106.521 31.212C106.953 31.02 107.337 30.924 107.673 30.924C108.297 30.924 108.825 31.188 109.257 31.716C109.617 32.172 109.797 32.664 109.797 33.192C109.797 33.576 109.701 33.924 109.509 34.236C109.317 34.548 109.041 34.788 108.681 34.956C106.809 35.892 104.817 36.36 102.705 36.36C100.353 36.36 98.1927 35.868 96.2247 34.884C94.2567 33.876 92.6847 32.4 91.5087 30.456C90.3327 28.512 89.7447 26.16 89.7447 23.4C89.7447 20.952 90.2967 18.756 91.4007 16.812C92.5287 14.868 94.0767 13.356 96.0447 12.276C98.0127 11.172 100.233 10.62 102.705 10.62C104.841 10.62 106.821 11.088 108.645 12.024ZM135.751 10.764C136.231 10.788 136.639 10.968 136.975 11.304C137.311 11.616 137.479 12.012 137.479 12.492V34.272C137.479 34.752 137.311 35.16 136.975 35.496C136.663 35.832 136.243 36 135.715 36C135.187 36 134.755 35.844 134.419 35.532C134.083 35.196 133.915 34.776 133.915 34.272V17.604L126.931 28.188C126.763 28.404 126.547 28.584 126.283 28.728C126.043 28.872 125.791 28.932 125.527 28.908C125.287 28.932 125.035 28.872 124.771 28.728C124.531 28.584 124.327 28.404 124.159 28.188L117.139 17.28V34.272C117.139 34.776 116.983 35.196 116.671 35.532C116.383 35.844 115.987 36 115.483 36C115.003 36 114.607 35.844 114.295 35.532C114.007 35.196 113.863 34.776 113.863 34.272V12.492C113.863 12.036 114.031 11.64 114.367 11.304C114.703 10.944 115.123 10.764 115.627 10.764C115.915 10.764 116.191 10.836 116.455 10.98C116.743 11.124 116.971 11.316 117.139 11.556L125.671 24.48L134.311 11.556C134.695 11.028 135.175 10.764 135.751 10.764ZM160.889 26.568C160.889 28.44 160.469 30.12 159.629 31.608C158.789 33.096 157.637 34.26 156.173 35.1C154.733 35.94 153.137 36.36 151.385 36.36C149.633 36.36 148.025 35.94 146.561 35.1C145.121 34.26 143.981 33.096 143.141 31.608C142.301 30.12 141.881 28.44 141.881 26.568C141.881 24.696 142.301 23.004 143.141 21.492C143.981 19.98 145.121 18.804 146.561 17.964C148.025 17.124 149.633 16.704 151.385 16.704C153.137 16.704 154.733 17.124 156.173 17.964C157.637 18.804 158.789 19.98 159.629 21.492C160.469 23.004 160.889 24.696 160.889 26.568ZM157.469 26.568C157.469 25.272 157.193 24.12 156.641 23.112C156.113 22.08 155.381 21.288 154.445 20.736C153.533 20.16 152.513 19.872 151.385 19.872C150.257 19.872 149.225 20.16 148.289 20.736C147.377 21.288 146.645 22.08 146.093 23.112C145.565 24.12 145.301 25.272 145.301 26.568C145.301 27.84 145.565 28.98 146.093 29.988C146.645 30.996 147.377 31.788 148.289 32.364C149.225 32.916 150.257 33.192 151.385 33.192C152.513 33.192 153.533 32.916 154.445 32.364C155.381 31.788 156.113 30.996 156.641 29.988C157.193 28.98 157.469 27.84 157.469 26.568ZM179.089 16.956C179.545 16.956 179.929 17.112 180.241 17.424C180.553 17.712 180.709 18.06 180.709 18.468C180.709 18.684 180.625 18.984 180.457 19.368L173.617 34.92C173.473 35.232 173.269 35.484 173.005 35.676C172.741 35.868 172.453 35.976 172.141 36C171.757 36.048 171.397 35.976 171.061 35.784C170.749 35.592 170.509 35.304 170.341 34.92L163.501 19.368C163.381 19.008 163.321 18.708 163.321 18.468C163.321 18.084 163.477 17.736 163.789 17.424C164.101 17.112 164.509 16.956 165.013 16.956C165.373 16.956 165.697 17.052 165.985 17.244C166.273 17.412 166.501 17.676 166.669 18.036L172.105 30.672L177.541 18.036C177.877 17.316 178.393 16.956 179.089 16.956ZM187.651 34.272C187.651 34.752 187.483 35.16 187.147 35.496C186.835 35.832 186.427 36 185.923 36C185.443 36 185.035 35.832 184.699 35.496C184.387 35.16 184.231 34.752 184.231 34.272V18.684C184.231 18.204 184.387 17.796 184.699 17.46C185.035 17.124 185.443 16.956 185.923 16.956C186.427 16.956 186.835 17.124 187.147 17.46C187.483 17.796 187.651 18.204 187.651 18.684V34.272ZM185.923 14.58C185.227 14.58 184.723 14.46 184.411 14.22C184.123 13.956 183.979 13.548 183.979 12.996V12.42C183.979 11.844 184.135 11.436 184.447 11.196C184.783 10.956 185.287 10.836 185.959 10.836C186.631 10.836 187.111 10.968 187.399 11.232C187.711 11.472 187.867 11.868 187.867 12.42V12.996C187.867 13.572 187.711 13.98 187.399 14.22C187.087 14.46 186.595 14.58 185.923 14.58ZM209.128 25.848C209.104 26.28 208.924 26.652 208.588 26.964C208.252 27.252 207.856 27.396 207.4 27.396H194.728C194.896 29.148 195.556 30.552 196.708 31.608C197.884 32.664 199.312 33.192 200.992 33.192C202.144 33.192 203.08 33.024 203.8 32.688C204.52 32.352 205.156 31.92 205.708 31.392C206.068 31.176 206.416 31.068 206.752 31.068C207.16 31.068 207.496 31.212 207.76 31.5C208.048 31.788 208.192 32.124 208.192 32.508C208.192 33.012 207.952 33.468 207.472 33.876C206.776 34.572 205.852 35.16 204.7 35.64C203.548 36.12 202.372 36.36 201.172 36.36C199.228 36.36 197.512 35.952 196.024 35.136C194.56 34.32 193.42 33.18 192.604 31.716C191.812 30.252 191.416 28.596 191.416 26.748C191.416 24.732 191.824 22.968 192.64 21.456C193.48 19.92 194.572 18.744 195.916 17.928C197.284 17.112 198.748 16.704 200.308 16.704C201.844 16.704 203.284 17.1 204.628 17.892C205.972 18.684 207.052 19.776 207.868 21.168C208.684 22.56 209.104 24.12 209.128 25.848ZM200.308 19.872C198.964 19.872 197.8 20.256 196.816 21.024C195.832 21.768 195.184 22.932 194.872 24.516H205.492V24.228C205.372 22.956 204.796 21.912 203.764 21.096C202.756 20.28 201.604 19.872 200.308 19.872ZM212.019 33.048C211.803 32.712 211.695 32.388 211.695 32.076C211.695 31.596 211.947 31.188 212.451 30.852C212.691 30.684 212.967 30.6 213.279 30.6C213.711 30.6 214.107 30.78 214.467 31.14C215.187 31.956 215.955 32.568 216.771 32.976C217.611 33.384 218.607 33.588 219.759 33.588C220.671 33.564 221.475 33.36 222.171 32.976C222.867 32.568 223.215 31.92 223.215 31.032C223.215 30.216 222.855 29.592 222.135 29.16C221.439 28.728 220.407 28.332 219.039 27.972C217.695 27.612 216.579 27.24 215.691 26.856C214.803 26.448 214.047 25.872 213.423 25.128C212.823 24.36 212.523 23.364 212.523 22.14C212.523 21.06 212.823 20.112 213.423 19.296C214.047 18.48 214.863 17.844 215.871 17.388C216.903 16.932 218.019 16.704 219.219 16.704C220.371 16.704 221.511 16.92 222.639 17.352C223.791 17.784 224.727 18.444 225.447 19.332C225.735 19.668 225.879 20.016 225.879 20.376C225.879 20.76 225.687 21.132 225.303 21.492C225.063 21.708 224.763 21.816 224.403 21.816C223.971 21.816 223.623 21.672 223.359 21.384C222.855 20.808 222.231 20.364 221.487 20.052C220.767 19.74 219.963 19.584 219.075 19.584C218.163 19.584 217.383 19.776 216.735 20.16C216.111 20.52 215.799 21.144 215.799 22.032C215.823 22.872 216.183 23.496 216.879 23.904C217.599 24.312 218.691 24.708 220.155 25.092C221.427 25.428 222.483 25.788 223.323 26.172C224.163 26.556 224.871 27.132 225.447 27.9C226.023 28.644 226.311 29.628 226.311 30.852C226.311 31.98 225.987 32.964 225.339 33.804C224.691 34.62 223.839 35.256 222.783 35.712C221.751 36.144 220.647 36.36 219.471 36.36C217.959 36.36 216.555 36.096 215.259 35.568C213.987 35.04 212.907 34.2 212.019 33.048Z" fill="white"/>
<g clip-path="url(#clip0)">
<path d="M11.2774 9.66603L34.0354 25.4333C34.3209 25.6311 34.3921 26.0234 34.1943 26.3089L25.594 38.7223C24.6064 40.1477 22.6426 40.505 21.2161 39.5167L2.59602 26.6162C1.1695 25.6279 0.814044 23.6638 1.80163 22.2384L10.4019 9.82499C10.5997 9.53939 10.9919 9.46823 11.2774 9.66603ZM2.83605 22.955C2.24334 23.8105 2.45718 24.989 3.31269 25.5817L21.9328 38.4821C22.7883 39.0749 23.9668 38.861 24.5595 38.0055L32.8014 26.1093L11.078 11.0588L2.83605 22.955Z" fill="white"/>
<path d="M14.0929 4.53266L17.2874 1.80235C18.0528 1.13075 19.2357 1.19556 19.9291 1.95153L37.3434 21.3347C37.6885 21.7116 37.8624 22.201 37.8347 22.7116C37.8071 23.2221 37.5798 23.6893 37.1926 24.0273L33.5492 27.2045C33.3293 27.3981 33.01 27.4081 32.7783 27.2476C32.737 27.219 32.6974 27.1854 32.6608 27.1432C32.4326 26.8826 32.46 26.4851 32.7224 26.2566L32.9348 26.0716L14.0373 5.43729C13.923 5.31064 13.8628 5.14337 13.8735 4.97322C13.8831 4.80227 13.9638 4.64383 14.0929 4.53266ZM33.8834 25.2437L36.3643 23.0814C36.4931 22.9686 36.5678 22.8121 36.5785 22.6419C36.5874 22.4721 36.5289 22.3091 36.4112 22.1785L18.9962 2.79643C18.9654 2.76132 18.93 2.73069 18.8928 2.70489C18.6611 2.54434 18.3366 2.55528 18.1121 2.75338L15.4061 5.0659L33.8834 25.2437Z" fill="white"/>
<path d="M29.6286 22.4597C29.9719 22.5123 30.2099 22.8272 30.1632 23.173L29.3653 28.7442C29.3156 29.0879 28.9971 29.3265 28.6527 29.2778C28.5514 29.2627 28.4606 29.2258 28.383 29.1721C28.1937 29.0409 28.083 28.8096 28.1181 28.5645L28.9159 22.9933C28.9657 22.6496 29.2842 22.4109 29.6286 22.4597Z" fill="white"/>
<path d="M24.4574 18.877C24.7996 18.9289 25.0397 19.2452 24.9909 19.5897L24.1931 25.1608C24.1433 25.5045 23.8249 25.7432 23.4805 25.6944C23.3792 25.6793 23.2883 25.6425 23.2107 25.5887C23.0214 25.4575 22.9107 25.2262 22.9468 24.9818L23.7447 19.4106C23.7946 19.0669 24.113 18.8283 24.4574 18.877Z" fill="white"/>
<path d="M19.2851 15.2935C19.6263 15.3447 19.8664 15.661 19.8187 16.0062L19.0209 21.5773C18.9711 21.921 18.6527 22.1597 18.3082 22.1109C18.2069 22.0958 18.1161 22.059 18.0385 22.0052C17.8492 21.8741 17.7385 21.6427 17.7746 21.3983L18.5724 15.8271C18.6223 15.4834 18.9408 15.2448 19.2851 15.2935Z" fill="white"/>
<path d="M14.1129 11.71C14.4561 11.7626 14.6942 12.0775 14.6465 12.4227L13.8486 17.9938C13.7988 18.3375 13.4804 18.5762 13.136 18.5274C13.0347 18.5124 12.9438 18.4755 12.8662 18.4217C12.6769 18.2906 12.5662 18.0592 12.6024 17.8148L13.4002 12.2436C13.4501 11.8999 13.7685 11.6613 14.1129 11.71Z" fill="white"/>
<path d="M8.41068 13.8039L31.1686 29.5711C31.4541 29.7689 31.5253 30.1612 31.3275 30.4467C31.1297 30.7322 30.7374 30.8034 30.4519 30.6056L7.69396 14.8383C7.40743 14.6398 7.33727 14.2483 7.53508 13.9627C7.73289 13.6772 8.12517 13.606 8.41068 13.8039Z" fill="white"/>
<path d="M29.6594 21.065L35.6904 19.9707C36.0319 19.9087 36.3598 20.1359 36.4218 20.4774C36.4837 20.8189 36.2565 21.1468 35.915 21.2088L29.8834 22.3041C29.7125 22.3342 29.545 22.2932 29.4126 22.2015C29.2801 22.1097 29.1829 21.9673 29.1527 21.7964C29.0908 21.4549 29.318 21.127 29.6594 21.065Z" fill="white"/>
<path d="M25.3952 16.4096L31.4292 15.3173C31.7707 15.2554 32.0986 15.4826 32.1606 15.8241C32.2225 16.1655 31.9953 16.4935 31.6539 16.5554L25.6209 17.6484C25.45 17.6784 25.2824 17.6374 25.15 17.5457C25.0176 17.4539 24.9203 17.3116 24.8885 17.1409C24.8265 16.7995 25.0537 16.4715 25.3952 16.4096Z" fill="white"/>
<path d="M21.1351 11.7572L27.1636 10.6596C27.5051 10.5977 27.833 10.8249 27.895 11.1663C27.9569 11.5078 27.7297 11.8358 27.3882 11.8977L21.3597 12.9953C21.1888 13.0253 21.0213 12.9843 20.8889 12.8926C20.7564 12.8008 20.6585 12.6595 20.6283 12.4885C20.5664 12.1471 20.7936 11.8191 21.1351 11.7572Z" fill="white"/>
<path d="M16.8762 7.10713L22.9058 6.01034C23.2473 5.94838 23.5752 6.17558 23.6372 6.51705C23.6992 6.85853 23.472 7.18646 23.1305 7.24843L17.1009 8.34525C16.93 8.37533 16.7625 8.33433 16.6301 8.24258C16.4977 8.15084 16.4004 8.00845 16.3696 7.83853C16.3076 7.49703 16.5348 7.16909 16.8762 7.10713Z" fill="white"/>
</g>
<defs>
<clipPath id="clip0">
<rect width="30.1919" height="30.1919" fill="white" transform="matrix(-0.821994 -0.569497 -0.569497 0.821994 42.0118 17.1942)"/>
</clipPath>
</defs>
</svg>
