<svg width="228" height="45" viewBox="0 0 228 45" fill="none" xmlns="http://www.w3.org/2000/svg">
<path d="M54.5898 10.8C56.8458 10.8 58.7778 11.364 60.3858 12.492C62.0178 13.596 63.2538 15.108 64.0938 17.028C64.9578 18.924 65.3898 21.048 65.3898 23.4C65.3898 25.752 64.9578 27.888 64.0938 29.808C63.2538 31.704 62.0178 33.216 60.3858 34.344C58.7778 35.448 56.8458 36 54.5898 36H45.9858C45.3618 36 44.8338 35.796 44.4018 35.388C43.9938 34.956 43.7898 34.428 43.7898 33.804V12.996C43.7898 12.372 43.9938 11.856 44.4018 11.448C44.8338 11.016 45.3618 10.8 45.9858 10.8H54.5898ZM54.2298 31.86C56.3898 31.86 58.0098 31.068 59.0898 29.484C60.1698 27.876 60.7098 25.848 60.7098 23.4C60.7098 20.952 60.1578 18.936 59.0538 17.352C57.9738 15.744 56.3658 14.94 54.2298 14.94H48.2898V31.86H54.2298ZM87.9495 26.388C87.9495 28.308 87.5175 30.036 86.6535 31.572C85.7895 33.084 84.6015 34.26 83.0895 35.1C81.6015 35.94 79.9575 36.36 78.1575 36.36C76.3335 36.36 74.6775 35.94 73.1895 35.1C71.7015 34.26 70.5255 33.084 69.6615 31.572C68.7975 30.036 68.3655 28.308 68.3655 26.388C68.3655 24.468 68.7975 22.752 69.6615 21.24C70.5255 19.704 71.7015 18.516 73.1895 17.676C74.6775 16.812 76.3335 16.38 78.1575 16.38C79.9575 16.38 81.6015 16.812 83.0895 17.676C84.6015 18.516 85.7895 19.704 86.6535 21.24C87.5175 22.752 87.9495 24.468 87.9495 26.388ZM83.6295 26.388C83.6295 25.212 83.3775 24.168 82.8735 23.256C82.3935 22.32 81.7335 21.6 80.8935 21.096C80.0775 20.592 79.1655 20.34 78.1575 20.34C77.1495 20.34 76.2255 20.592 75.3855 21.096C74.5695 21.6 73.9095 22.32 73.4055 23.256C72.9255 24.168 72.6855 25.212 72.6855 26.388C72.6855 27.564 72.9255 28.608 73.4055 29.52C73.9095 30.432 74.5695 31.14 75.3855 31.644C76.2255 32.148 77.1495 32.4 78.1575 32.4C79.1655 32.4 80.0775 32.148 80.8935 31.644C81.7335 31.14 82.3935 30.432 82.8735 29.52C83.3775 28.608 83.6295 27.564 83.6295 26.388ZM101.855 16.38C104.303 16.38 105.995 17.112 106.931 18.576C107.867 20.016 108.335 22.02 108.335 24.588V33.804C108.335 34.428 108.131 34.956 107.723 35.388C107.315 35.796 106.799 36 106.175 36C105.551 36 105.035 35.796 104.627 35.388C104.219 34.956 104.015 34.428 104.015 33.804V24.588C104.015 23.268 103.739 22.236 103.187 21.492C102.635 20.724 101.687 20.34 100.343 20.34C98.9508 20.34 97.8588 20.748 97.0668 21.564C96.2748 22.356 95.8788 23.364 95.8788 24.588V33.804C95.8788 34.428 95.6748 34.956 95.2668 35.388C94.8588 35.796 94.3428 36 93.7188 36C93.0948 36 92.5788 35.796 92.1708 35.388C91.7628 34.956 91.5588 34.428 91.5588 33.804V18.936C91.5588 18.312 91.7628 17.796 92.1708 17.388C92.5788 16.956 93.0948 16.74 93.7188 16.74C94.3428 16.74 94.8588 16.956 95.2668 17.388C95.6748 17.796 95.8788 18.312 95.8788 18.936V19.548C96.5268 18.684 97.3668 17.94 98.3988 17.316C99.4548 16.692 100.607 16.38 101.855 16.38ZM135.54 10.764C136.02 10.788 136.428 10.968 136.764 11.304C137.1 11.616 137.268 12.012 137.268 12.492V34.272C137.268 34.752 137.1 35.16 136.764 35.496C136.452 35.832 136.032 36 135.504 36C134.976 36 134.544 35.844 134.208 35.532C133.872 35.196 133.704 34.776 133.704 34.272V17.604L126.72 28.188C126.552 28.404 126.336 28.584 126.072 28.728C125.832 28.872 125.58 28.932 125.316 28.908C125.076 28.932 124.824 28.872 124.56 28.728C124.32 28.584 124.116 28.404 123.948 28.188L116.928 17.28V34.272C116.928 34.776 116.772 35.196 116.46 35.532C116.172 35.844 115.776 36 115.272 36C114.792 36 114.396 35.844 114.084 35.532C113.796 35.196 113.652 34.776 113.652 34.272V12.492C113.652 12.036 113.82 11.64 114.156 11.304C114.492 10.944 114.912 10.764 115.416 10.764C115.704 10.764 115.98 10.836 116.244 10.98C116.532 11.124 116.76 11.316 116.928 11.556L125.46 24.48L134.1 11.556C134.484 11.028 134.964 10.764 135.54 10.764ZM160.678 26.568C160.678 28.44 160.258 30.12 159.418 31.608C158.578 33.096 157.426 34.26 155.962 35.1C154.522 35.94 152.926 36.36 151.174 36.36C149.422 36.36 147.814 35.94 146.35 35.1C144.91 34.26 143.77 33.096 142.93 31.608C142.09 30.12 141.67 28.44 141.67 26.568C141.67 24.696 142.09 23.004 142.93 21.492C143.77 19.98 144.91 18.804 146.35 17.964C147.814 17.124 149.422 16.704 151.174 16.704C152.926 16.704 154.522 17.124 155.962 17.964C157.426 18.804 158.578 19.98 159.418 21.492C160.258 23.004 160.678 24.696 160.678 26.568ZM157.258 26.568C157.258 25.272 156.982 24.12 156.43 23.112C155.902 22.08 155.17 21.288 154.234 20.736C153.322 20.16 152.302 19.872 151.174 19.872C150.046 19.872 149.014 20.16 148.078 20.736C147.166 21.288 146.434 22.08 145.882 23.112C145.354 24.12 145.09 25.272 145.09 26.568C145.09 27.84 145.354 28.98 145.882 29.988C146.434 30.996 147.166 31.788 148.078 32.364C149.014 32.916 150.046 33.192 151.174 33.192C152.302 33.192 153.322 32.916 154.234 32.364C155.17 31.788 155.902 30.996 156.43 29.988C156.982 28.98 157.258 27.84 157.258 26.568ZM178.878 16.956C179.334 16.956 179.718 17.112 180.03 17.424C180.342 17.712 180.498 18.06 180.498 18.468C180.498 18.684 180.414 18.984 180.246 19.368L173.406 34.92C173.262 35.232 173.058 35.484 172.794 35.676C172.53 35.868 172.242 35.976 171.93 36C171.546 36.048 171.186 35.976 170.85 35.784C170.538 35.592 170.298 35.304 170.13 34.92L163.29 19.368C163.17 19.008 163.11 18.708 163.11 18.468C163.11 18.084 163.266 17.736 163.578 17.424C163.89 17.112 164.298 16.956 164.802 16.956C165.162 16.956 165.486 17.052 165.774 17.244C166.062 17.412 166.29 17.676 166.458 18.036L171.894 30.672L177.33 18.036C177.666 17.316 178.182 16.956 178.878 16.956ZM187.441 34.272C187.441 34.752 187.273 35.16 186.937 35.496C186.625 35.832 186.217 36 185.713 36C185.233 36 184.825 35.832 184.489 35.496C184.177 35.16 184.021 34.752 184.021 34.272V18.684C184.021 18.204 184.177 17.796 184.489 17.46C184.825 17.124 185.233 16.956 185.713 16.956C186.217 16.956 186.625 17.124 186.937 17.46C187.273 17.796 187.441 18.204 187.441 18.684V34.272ZM185.713 14.58C185.017 14.58 184.513 14.46 184.201 14.22C183.913 13.956 183.769 13.548 183.769 12.996V12.42C183.769 11.844 183.925 11.436 184.237 11.196C184.573 10.956 185.077 10.836 185.749 10.836C186.421 10.836 186.901 10.968 187.189 11.232C187.501 11.472 187.657 11.868 187.657 12.42V12.996C187.657 13.572 187.501 13.98 187.189 14.22C186.877 14.46 186.385 14.58 185.713 14.58ZM208.917 25.848C208.893 26.28 208.713 26.652 208.377 26.964C208.041 27.252 207.645 27.396 207.189 27.396H194.517C194.685 29.148 195.345 30.552 196.497 31.608C197.673 32.664 199.101 33.192 200.781 33.192C201.933 33.192 202.869 33.024 203.589 32.688C204.309 32.352 204.945 31.92 205.497 31.392C205.857 31.176 206.205 31.068 206.541 31.068C206.949 31.068 207.285 31.212 207.549 31.5C207.837 31.788 207.981 32.124 207.981 32.508C207.981 33.012 207.741 33.468 207.261 33.876C206.565 34.572 205.641 35.16 204.489 35.64C203.337 36.12 202.161 36.36 200.961 36.36C199.017 36.36 197.301 35.952 195.813 35.136C194.349 34.32 193.209 33.18 192.393 31.716C191.601 30.252 191.205 28.596 191.205 26.748C191.205 24.732 191.613 22.968 192.429 21.456C193.269 19.92 194.361 18.744 195.705 17.928C197.073 17.112 198.537 16.704 200.097 16.704C201.633 16.704 203.073 17.1 204.417 17.892C205.761 18.684 206.841 19.776 207.657 21.168C208.473 22.56 208.893 24.12 208.917 25.848ZM200.097 19.872C198.753 19.872 197.589 20.256 196.605 21.024C195.621 21.768 194.973 22.932 194.661 24.516H205.281V24.228C205.161 22.956 204.585 21.912 203.553 21.096C202.545 20.28 201.393 19.872 200.097 19.872ZM211.808 33.048C211.592 32.712 211.484 32.388 211.484 32.076C211.484 31.596 211.736 31.188 212.24 30.852C212.48 30.684 212.756 30.6 213.068 30.6C213.5 30.6 213.896 30.78 214.256 31.14C214.976 31.956 215.744 32.568 216.56 32.976C217.4 33.384 218.396 33.588 219.548 33.588C220.46 33.564 221.264 33.36 221.96 32.976C222.656 32.568 223.004 31.92 223.004 31.032C223.004 30.216 222.644 29.592 221.924 29.16C221.228 28.728 220.196 28.332 218.828 27.972C217.484 27.612 216.368 27.24 215.48 26.856C214.592 26.448 213.836 25.872 213.212 25.128C212.612 24.36 212.312 23.364 212.312 22.14C212.312 21.06 212.612 20.112 213.212 19.296C213.836 18.48 214.652 17.844 215.66 17.388C216.692 16.932 217.808 16.704 219.008 16.704C220.16 16.704 221.3 16.92 222.428 17.352C223.58 17.784 224.516 18.444 225.236 19.332C225.524 19.668 225.668 20.016 225.668 20.376C225.668 20.76 225.476 21.132 225.092 21.492C224.852 21.708 224.552 21.816 224.192 21.816C223.76 21.816 223.412 21.672 223.148 21.384C222.644 20.808 222.02 20.364 221.276 20.052C220.556 19.74 219.752 19.584 218.864 19.584C217.952 19.584 217.172 19.776 216.524 20.16C215.9 20.52 215.588 21.144 215.588 22.032C215.612 22.872 215.972 23.496 216.668 23.904C217.388 24.312 218.48 24.708 219.944 25.092C221.216 25.428 222.272 25.788 223.112 26.172C223.952 26.556 224.66 27.132 225.236 27.9C225.812 28.644 226.1 29.628 226.1 30.852C226.1 31.98 225.776 32.964 225.128 33.804C224.48 34.62 223.628 35.256 222.572 35.712C221.54 36.144 220.436 36.36 219.26 36.36C217.748 36.36 216.344 36.096 215.048 35.568C213.776 35.04 212.696 34.2 211.808 33.048Z" fill="white"/>
<g clip-path="url(#clip0)">
<path d="M11.2774 9.66603L34.0354 25.4333C34.3209 25.6311 34.3921 26.0234 34.1943 26.3089L25.594 38.7223C24.6064 40.1477 22.6426 40.505 21.2161 39.5167L2.59602 26.6162C1.1695 25.6279 0.814044 23.6638 1.80163 22.2384L10.4019 9.82499C10.5997 9.53939 10.9919 9.46823 11.2774 9.66603ZM2.83605 22.955C2.24334 23.8105 2.45718 24.989 3.31269 25.5817L21.9328 38.4821C22.7883 39.0749 23.9668 38.861 24.5595 38.0055L32.8014 26.1093L11.078 11.0588L2.83605 22.955Z" fill="white"/>
<path d="M14.0929 4.53266L17.2874 1.80235C18.0528 1.13075 19.2357 1.19556 19.9291 1.95153L37.3434 21.3347C37.6885 21.7116 37.8624 22.201 37.8347 22.7116C37.8071 23.2221 37.5798 23.6893 37.1926 24.0273L33.5492 27.2045C33.3293 27.3981 33.01 27.4081 32.7783 27.2476C32.737 27.219 32.6974 27.1854 32.6608 27.1432C32.4326 26.8826 32.46 26.4851 32.7224 26.2566L32.9348 26.0716L14.0373 5.43729C13.923 5.31064 13.8628 5.14337 13.8735 4.97322C13.8831 4.80227 13.9638 4.64383 14.0929 4.53266ZM33.8834 25.2437L36.3643 23.0814C36.4931 22.9686 36.5678 22.8121 36.5785 22.6419C36.5874 22.4721 36.5289 22.3091 36.4112 22.1785L18.9962 2.79643C18.9654 2.76132 18.93 2.73069 18.8928 2.70489C18.6611 2.54434 18.3366 2.55528 18.1121 2.75338L15.4061 5.0659L33.8834 25.2437Z" fill="white"/>
<path d="M29.6286 22.4597C29.9719 22.5123 30.2099 22.8272 30.1632 23.173L29.3653 28.7442C29.3156 29.0879 28.9971 29.3265 28.6527 29.2778C28.5514 29.2627 28.4606 29.2258 28.383 29.1721C28.1937 29.0409 28.083 28.8096 28.1181 28.5645L28.9159 22.9933C28.9657 22.6496 29.2842 22.4109 29.6286 22.4597Z" fill="white"/>
<path d="M24.4574 18.877C24.7996 18.9289 25.0397 19.2452 24.9909 19.5897L24.1931 25.1608C24.1433 25.5045 23.8249 25.7432 23.4805 25.6944C23.3792 25.6793 23.2883 25.6425 23.2107 25.5887C23.0214 25.4575 22.9107 25.2262 22.9468 24.9818L23.7447 19.4106C23.7946 19.0669 24.113 18.8283 24.4574 18.877Z" fill="white"/>
<path d="M19.2851 15.2935C19.6263 15.3447 19.8664 15.661 19.8187 16.0062L19.0209 21.5773C18.9711 21.921 18.6527 22.1597 18.3082 22.1109C18.2069 22.0958 18.1161 22.059 18.0385 22.0052C17.8492 21.8741 17.7385 21.6427 17.7746 21.3983L18.5724 15.8271C18.6223 15.4834 18.9408 15.2448 19.2851 15.2935Z" fill="white"/>
<path d="M14.1129 11.71C14.4561 11.7626 14.6942 12.0775 14.6465 12.4227L13.8486 17.9938C13.7988 18.3375 13.4804 18.5762 13.136 18.5274C13.0347 18.5124 12.9438 18.4755 12.8662 18.4217C12.6769 18.2906 12.5662 18.0592 12.6024 17.8148L13.4002 12.2436C13.4501 11.8999 13.7685 11.6613 14.1129 11.71Z" fill="white"/>
<path d="M8.41068 13.8039L31.1686 29.5711C31.4541 29.7689 31.5253 30.1612 31.3275 30.4467C31.1297 30.7322 30.7374 30.8034 30.4519 30.6056L7.69396 14.8383C7.40743 14.6398 7.33727 14.2483 7.53508 13.9627C7.73289 13.6772 8.12517 13.606 8.41068 13.8039Z" fill="white"/>
<path d="M29.6594 21.065L35.6904 19.9707C36.0319 19.9087 36.3598 20.1359 36.4218 20.4774C36.4837 20.8189 36.2565 21.1468 35.915 21.2088L29.8834 22.3041C29.7125 22.3342 29.545 22.2932 29.4126 22.2015C29.2801 22.1097 29.1829 21.9673 29.1527 21.7964C29.0908 21.4549 29.318 21.127 29.6594 21.065Z" fill="white"/>
<path d="M25.3952 16.4096L31.4292 15.3173C31.7707 15.2554 32.0986 15.4826 32.1606 15.8241C32.2225 16.1655 31.9953 16.4935 31.6539 16.5554L25.6209 17.6484C25.45 17.6784 25.2824 17.6374 25.15 17.5457C25.0176 17.4539 24.9203 17.3116 24.8885 17.1409C24.8265 16.7995 25.0537 16.4715 25.3952 16.4096Z" fill="white"/>
<path d="M21.1351 11.7572L27.1636 10.6596C27.5051 10.5977 27.833 10.8249 27.895 11.1663C27.9569 11.5078 27.7297 11.8358 27.3882 11.8977L21.3597 12.9953C21.1888 13.0253 21.0213 12.9843 20.8889 12.8926C20.7564 12.8008 20.6585 12.6595 20.6283 12.4885C20.5664 12.1471 20.7936 11.8191 21.1351 11.7572Z" fill="white"/>
<path d="M16.8762 7.10713L22.9058 6.01034C23.2473 5.94838 23.5752 6.17558 23.6372 6.51705C23.6992 6.85853 23.472 7.18646 23.1305 7.24843L17.1009 8.34525C16.93 8.37533 16.7625 8.33433 16.6301 8.24258C16.4977 8.15084 16.4004 8.00845 16.3696 7.83853C16.3076 7.49703 16.5348 7.16909 16.8762 7.10713Z" fill="white"/>
</g>
<defs>
<clipPath id="clip0">
<rect width="30.1919" height="30.1919" fill="white" transform="matrix(-0.821994 -0.569497 -0.569497 0.821994 42.0118 17.1942)"/>
</clipPath>
</defs>
</svg>
